<?xml version="1.0" encoding="iso-8859-1"?>
<!-- Generator: Adobe Illustrator 16.0.0, SVG Export Plug-In . SVG Version: 6.00 Build 0)  -->
<!DOCTYPE svg PUBLIC "-//W3C//DTD SVG 1.1//EN" "http://www.w3.org/Graphics/SVG/1.1/DTD/svg11.dtd">
<svg version="1.1" id="Capa_1" xmlns="http://www.w3.org/2000/svg" xmlns:xlink="http://www.w3.org/1999/xlink" x="0px" y="0px"
	 width="94px" height="94px" viewBox="0 0 94 94" style="enable-background:new 0 0 94 94;" xml:space="preserve">
<g>
	<path d="M89,0H5C2.238,0,0,2.239,0,5v84c0,2.761,2.238,5,5,5h84c2.762,0,5-2.239,5-5V5C94,2.239,91.762,0,89,0z M22.204,68.775
		H7.978v-4.312h14.227L22.204,68.775L22.204,68.775z M22.204,63.172H7.978v-4.312h14.227L22.204,63.172L22.204,63.172z
		 M22.204,57.566H7.978v-4.313h14.227L22.204,57.566L22.204,57.566z M22.204,51.96H7.978v-4.312h14.227L22.204,51.96L22.204,51.96z
		 M22.204,46.354H7.978v-4.311h14.227L22.204,46.354L22.204,46.354z M38.159,68.775H23.931v-4.312H38.16L38.159,68.775
		L38.159,68.775z M38.159,63.172H23.931v-4.312H38.16L38.159,63.172L38.159,63.172z M38.159,57.566H23.931v-4.313H38.16
		L38.159,57.566L38.159,57.566z M54.116,68.775H39.884v-4.312h14.232V68.775z M54.116,63.172H39.884v-4.312h14.232V63.172z
		 M54.116,57.566H39.884v-4.313h14.232V57.566z M54.116,51.96H39.884v-4.312h14.232V51.96z M54.116,46.354H39.884v-4.311h14.232
		V46.354z M54.116,40.749H39.884v-4.313h14.232V40.749z M54.116,35.145H39.884v-4.313h14.232V35.145z M70.066,68.775H55.839v-4.312
		h14.229v4.312H70.066z M70.066,63.172H55.839v-4.312h14.229v4.312H70.066z M70.066,57.566H55.839v-4.313h14.229v4.313H70.066z
		 M70.066,51.96H55.839v-4.312h14.229v4.312H70.066z M70.066,46.354H55.839v-4.311h14.229v4.311H70.066z M86.021,68.775H71.794
		v-4.312h14.229v4.312H86.021z M86.021,63.172H71.794v-4.312h14.229v4.312H86.021z M86.021,57.562H71.794v-4.312h14.229v4.312
		H86.021z M86.021,51.96H71.794v-4.313h14.229v4.313H86.021z M86.021,46.354H71.794v-4.313h14.229v4.313H86.021z M86.021,40.747
		H71.794v-4.31h14.229v4.31H86.021z M86.021,35.142H71.794v-4.311h14.229v4.311H86.021z M86.021,29.536H71.794v-4.313h14.229v4.313
		H86.021z"/>
</g>
<g>
</g>
<g>
</g>
<g>
</g>
<g>
</g>
<g>
</g>
<g>
</g>
<g>
</g>
<g>
</g>
<g>
</g>
<g>
</g>
<g>
</g>
<g>
</g>
<g>
</g>
<g>
</g>
<g>
</g>
</svg>
